<svg width="22" height="228" viewBox="0 0 22 228" fill="none" xmlns="http://www.w3.org/2000/svg">
<path d="M22 1H9.8718C8.03419 1.72436 4.35898 5.34615 4.35898 14.0385C4.35898 22.7308 4.35898 111.103 4.35898 154.202M4.35898 154.202H12.6282M4.35898 154.202V177.019" stroke="#C9C9C9"/>
<path d="M4.35897 186.798C4.35897 186.798 4.35897 191.765 4.35897 194.947M4.35897 203.096C4.35897 203.096 4.35897 198.129 4.35897 194.947M4.35897 194.947C5.866 194.947 8.21795 194.947 8.21795 194.947M4.35897 194.947C2.85195 194.947 0.5 194.947 0.5 194.947" stroke="#C9C9C9"/>
<path d="M4.35898 211.788V222.654C4.54274 224.103 5.68206 227 8.76923 227C11.8564 227 16.6709 227 18.6923 227" stroke="#C9C9C9"/>
</svg>
